<svg xmlns="http://www.w3.org/2000/svg" xml:space="preserve" width="192" height="192" data-version="2">
    <path d="M19.14 89.47v-3.5h8.26V24.25h-8.35v-3.51H42.5l20.26 50 20.12-50h22.69v3.51h-8.76v61.72h9.56v3.5H76.5v-3.5h8.18l.04-59.79-24.97 62.35h-1.8L31.49 25.86v60.11h8.13v3.5z" paint-order="stroke"/>
    <rect width="87.32" height="68.73" x="-43.66" y="-34.365" fill="none" rx="0" ry="0" transform="translate(63.21 55.605)"/>
    <path d="M101.57 89.47v-3.5h7.01l.05-61.72h-7.06v-3.51h26.73v3.51h-7.59v29.02h33.42l.05-29.02h-7.59v-3.51h26.72v3.51h-7.05v61.72h7.01v3.5h-26.68v-3.5h7.54v-29.2h-33.42v29.2h7.55v3.5z" paint-order="stroke"/>
    <rect width="71.74" height="68.73" x="-35.87" y="-34.365" fill="none" rx="0" ry="0" transform="translate(137.94 55.605)"/>
</svg>
