<svg xmlns="http://www.w3.org/2000/svg" version="1.1" xmlns:xlink="http://www.w3.org/1999/xlink" width="2000" height="159" viewBox="0 0 2000 159"><svg xml:space="preserve" width="2000" height="159" data-version="2" data-id="lg_tY0uuaLPzQT3lyjxJz" viewBox="0 0 478 159" x="0" y="0"><rect width="100%" height="100%" fill="transparent"></rect><path fill="#205bb9" d="M190.53 154.093q-4.2 0-5.75-2.43-1.55-2.43-1.55-5.3 0-13.71 2.77-31.39 2.76-17.68 6.74-35.13 3.53-14.81 7.84-27.63 4.31-12.82 7.63-20.99 4.86-11.5 11.16-17.57 6.3-6.08 14.69-6.08 6.19 0 11.05 4.09 4.87 4.09 5.75 14.69 1.33 12.82 3.09 25.86 1.77 13.04 3.98 23.76 2.21 10.72 4.64 16.46 1.99 5.09 5.75 5.09 4.2 0 7.29-5.31 2.88-4.86 6.19-13.26 3.32-8.4 6.52-17.79 3.2-9.39 5.64-17.13 2.87-8.39 6.52-16.9 3.64-8.51 9.39-14.15 5.74-5.63 14.36-5.63 7.96 0 11.38 5.41 3.43 5.42 3.43 17.13 0 9.06-.66 19.01-.22 5.74-.56 11.82-.33 6.08-.33 12.49 0 9.94 1 20.99.99 11.05 3.98 20.77 2.98 9.73 8.95 16.36 1.76 1.55 3.2 3.53 1.44 1.99 1.44 4.42 0 5.53-5.86 10.06t-13.37 4.53q-6.85 0-10.17-4.42-3.31-4.42-5.3-11.93-2.21-9.29-3.09-19.89-.89-10.61-.89-20.56 0-15.91 1.22-29.28 1.21-13.37 1.21-19.78 0-3.53-.66-5.19-.66-1.66-3.32-1.66-3.09 0-5.19 2.76-2.1 2.77-3.42 7.63-2.88 9.28-6.41 19.89-3.54 10.61-7.41 20.77-3.86 10.17-8.28 18.12-5.09 9.29-10.94 12.49-5.86 3.2-11.83 3.2-9.28 0-14.03-5.85-4.75-5.86-6.96-12.93-2.88-9.5-5.31-24.86-2.43-15.36-3.53-34.59-.44-8.18-5.31-8.18-5.3 0-8.39 7.96-2.66 7.96-5.09 18.67-2.43 10.72-3.86 22.33-1.44 11.6-1.44 22.87 0 9.5.77 16.57.78 7.08.78 13.26 0 4.42-3.43 7.3-3.43 2.87-8.07 4.2-4.64 1.32-7.95 1.32"></path><rect width="172.83" height="146.74" x="-86.42" y="-73.37" fill="none" rx="0" ry="0" transform="translate(270.14 81.22)"></rect><path fill="#205bb9" d="M381.47 154.313q-3.09 0-5.3-1.43-2.21-1.44-1.77-3.87 3.31-17.68 5.64-35.91 2.32-18.24 2.32-36.8 0-16.35-1.11-29.61-1.1-13.26-7.07-25.42-1.11-2.43-1.77-4.2-.66-1.77-.66-3.31 0-4.2 4.97-8.18 4.97-3.98 10.5-3.98 7.73 0 10.61 9.73 2.87 9.72 2.87 28.73 0 22.76-2.65 39.67-2.66 16.9-4.64 25.74l.88.44q4.42-11.71 10.72-21.88 6.3-10.16 14.69-16.35 8.4-6.19 19.45-6.19 11.72 0 17.79 7.07 6.08 7.08 6.08 17.46 0 4.42-.88 8.51-.89 4.09-1.99 7.85-1.11 3.53-1.99 7.18-.89 3.65-.89 7.4 0 6.85 3.32 11.16 3.31 4.31 8.84 6.08 1.55.44 2.32 1.22.77.77.77 2.76 0 1.99-1.32 5.75-1.33 3.75-4.86 6.96-3.54 3.2-10.39 3.2-8.84 0-13.7-6.3-4.87-6.3-4.87-16.24 0-4.86 1-9.95.99-5.08 2.32-9.72 1.1-4.64 1.99-8.73.88-4.09.88-6.96 0-10.17-10.61-10.17-8.84 0-15.58 6.3t-11.49 15.91q-4.75 9.62-7.84 19.78v7.52q0 8.17-4.75 13.48-4.76 5.3-11.83 5.3"></path><rect width="100.77" height="152.71" x="-50.38" y="-76.36" fill="none" rx="0" ry="0" transform="translate(422.63 78.46)"></rect><path fill="#0a3379" d="M158.791 32.734 134.664 8.602c-1.435-1.436-3.976-1.436-5.409 0l-15.008 15.013c-1.175-4.041-4.865-7.02-9.276-7.02H14.185a9.717 9.717 0 0 0-9.703 9.707v72.31a9.714 9.714 0 0 0 9.703 9.703h15.568l-4.67 4.672c-.016.014-.03.033-.045.045l-.086.086c-.121.12-.214.255-.314.385a3.744 3.744 0 0 0-.325.498 3.761 3.761 0 0 0-.227.472c-.018.048-.05.09-.066.14l-12.066 36.19a3.83 3.83 0 0 0 4.838 4.842l36.195-12.065c.033-.01.06-.032.095-.045a3.93 3.93 0 0 0 .746-.36c.015-.01.031-.014.045-.024.22-.144.426-.307.614-.494l34.331-34.34h16.153c5.35 0 9.7-4.353 9.7-9.704V82.456l23.328-23.332c.229-.23.415-.492.576-.767l20.218-20.216a3.824 3.824 0 0 0-.002-5.407m-51.77 65.879c0 1.133-.92 2.053-2.05 2.053h-8.502L107.02 90.11zm3.921-60.688 6.906 6.905-77.877 77.898-6.904-6.903zM12.131 98.613v-72.31c0-1.134.92-2.054 2.053-2.054h90.785a2.052 2.052 0 0 1 2.05 2.053v4.582l-69.626 69.782H14.185a2.056 2.056 0 0 1-2.054-2.053m9.5 47.353 7.687-23.064 15.377 15.377zm86.512-67.8s-.003 0-.003.003l-4.15 4.152-52.21 52.22-6.401-6.404 77.88-77.898 6.405 6.403zm27.056-27.251-18.722-18.713 15.482-15.484 18.719 18.719z"></path><path fill="#0a3379" d="M40.052 46.289a3.828 3.828 0 0 0-1.12-2.704l-9.197-9.196a3.827 3.827 0 0 0-5.41 5.412l6.492 6.488-6.491 6.49a3.822 3.822 0 0 0 0 5.41 3.816 3.816 0 0 0 5.409.001l9.197-9.195a3.83 3.83 0 0 0 1.12-2.706m5.591 13.02h10.955a3.826 3.826 0 0 0 0-7.651H45.643a3.827 3.827 0 0 0 0 7.651"></path></svg></svg>