<svg xmlns="http://www.w3.org/2000/svg" version="1.1" xmlns:xlink="http://www.w3.org/1999/xlink" width="2000" height="238" viewBox="0 0 2000 238"><svg xml:space="preserve" width="2000" height="238" data-version="2" data-id="lg_rA3c2dnmxWiiDJOrjw" viewBox="0 0 571 238" x="0" y="0"><rect width="100%" height="100%" fill="transparent"></rect><path fill="#c9e4ff" d="M563.818 107.48c2.63-.933 1.27-1.19 1.6-1.432-4.251 1.802-1.38 1.56-1.6 1.432m-41.986 17.763.591-.547-5.916 3.025zm-40.167 15.318c4.514-.435 14.44-5.728 21.847-8.093l1.337-.226 2.652-2.06c-8.612 3.444-19.525 8.303-25.836 10.363Zm-23.008 5.969c1.6-.112-4.382 2.108 5.084-1.786l-.986.242z"></path><path fill="#c9e4ff" d="M462.786 144.999c4.207-1.641-3.002.724 0 0m-19.396 7.678 5.325-2.478c-1.337.209-6.333 2.043-4.602 1.174-5.588 2.382-4.229 2.156-.723 1.304m-4.126 2.478.788-.338 1.381-.628c-.504.065-1.644.483-2.17.966m8.065-3.62-5.895 2.654c.92-.145 1.249.161 2.74-1.19-.286.498.722-.258 3.176-1.465Zm3.593-1.16c3.287-.965 7.429-2.38 2.082.113 10.562-4.215 8.48-4.328-2.082-.112m29.411-7.981 4.383-1.303 3.375-1.722c-1.688.853-8.24 2.8-7.758 3.025m-48.672-.909c-.373-.257-.592 1.625-.964 2.011l1.008 3.33c-.088-1.753-.504-5.067-.044-5.34"></path><path fill="#c9e4ff" d="m430.718 143.49-1.49-4.989c.766 4.522 1.183 5.31 1.49 4.988m8.392 13.033a12.2 12.2 0 0 0 1.753-.724l2.389-1.158 4.777-2.317-5.741 2.703-1.447.676-1.03.466c-.679.225-1.402.467-2.19.531q.766-.016 1.49-.145Zm-10.956-34.336 1.293 2.784-2.104-4.988zm-2.52-12.775c1.03 2.06.526-3.01 1.336-.805-.745-3.46-1.84-6.371-2.826-8.994.788 2.816 1.292 5.84 1.49 9.815Zm-3.024-14.224q.657 2.092 1.534 4.409-.592-2.253-1.534-4.409m5.171 34.69c.132-.418.504-1.207.197-4.07l-.57 2.075zm-.372-1.915v-.08l-.723-4.296zm.44 2.414-.088-.499q-.131.258.088.499m2.861 21.434c-1.073-2.863-2.76-9.026-2.454-2.96 1.03 2.06.855-1.383 2.455 2.96m-3.543-18.86.788 5.39c.22-.128.395-1.126.943.306l-1.71-5.696Zm-.767-2.59.767 2.59-.285-1.995zm-2.959-25.905c-.832-2.269-1.336-4.81-1.928-7.659.394 3.09.877 6.275 1.424 9.284.373.402 1.14 1.673.504-1.625m1.841 11.424-.153-.515c0 .322 0 .58.153.515m-23.469-45.736q.46.032.92.113l.22-.113q-.548-.032-1.14 0m21.045 36.477c.24 2.317.723 3.685 1.249 4.972q-.636-2.575-1.184-5.503c-.175-.177-.263-.21-.087.531Zm-2.134-19.253q.044 1.867.22 4.039c.087-1.207.087-3.636-.22-4.039m4.536 27.203.11.338c.065-.772 0-.675-.11-.337"></path><path fill="#c9e4ff" d="M425.261 114.576c-.35-1.175-.745-2.092-1.14-2.993q.505 2.124 1.009 3.797.022-.467.11-.804ZM392.39 78.373c-.044-.37 1.38-1.657 3.725-3.121a9.203 6.758 0 0 1 10.146-.74c1.687.353 2.717.66 3.352.643q.943 0 .658-.885c-.22-.547-.899-1.368-2.148-2.172a12.052 8.85 0 0 0-5.39-1.85c-.154.128-.263.241-1.556.466-1.205.258-4.054.499-7.845 2.784l1.643-.676c.745-.225 1.578-.563 2.586-.74a13.148 9.654 0 0 1 6.114-.274c1.862.226 3.221.74 3.681.998.439.273.022.257-1.753.016a15.34 11.263 0 0 0-6.223.097q-1.074.209-1.797.386l-1.27.37c-.768.209-1.294.434-2.017.676a25.03 25.03 0 0 0-2.279.981c3.791-1.207-8.59 6.533-5.96 6.484l6.245-4.2c.285.065-1.863 1.706.11.757Z"></path><path fill="#c9e4ff" d="M417.723 78.688q.307.756.504 1.544l.285 1.143-.11-.917-.24-1.24a17.53 12.872 0 0 0-5.895-7.578 15.34 11.263 0 0 0-7.144-1.69c-1.402-.047-1.928.114-2.191.194a16.216 11.907 0 0 1 15.23 9.59q-.198-.531-.46-1.03Zm2.607 12.461c-1.248-1.61-2.607-6.807-3.045-3.492 1.249 6.388 1.621 4.409 2.717 8.19-2.147-10.314 1.074 2.912.22-4.602q.766 2.993 1.27 5.551-.35-2.816-.57-5.39v.29c-.043.45-.087.611-.11.096l-.065-.209q-.219-.129-.438-.434c-.35-3.01.153-.5.438.434.044.032.11.113.153.113v-.033l-2.432-10.297c.285 2.204.81 4.94 1.819 9.799Zm4.89 52.383c.021-.322.087-.322.153-.354-.241-.66-.373-.901-.154.354m-.199-4.307c.263.74.767 1.336 1.118 3.782.11 2.156-.46.032-.745.177.526 1.448 1.621 5.084 1.227.418l-.263-.724c-.438-4.2-.263-9.67 0-8.946-.614 1.303-1.008 2.43-1.337 5.293m-2.651-24.312-2.06-8.575v4.473l.438-.274c.723 4.924 1.118 3.797 1.6 4.376Zm-22.636-44.971c.723-.37 1.533-.611 2.366-.901a16.873 12.39 0 0 0-9.4 3.443 15.34 11.263 0 0 1 7.034-2.542m-15.23 7.08-.11-.757-2.848 2.156zM220.484 117.15l-2.52 1.77a85.864 85.864 0 0 0 2.52-1.77m19.364-11.81.197-.531c-.745.676-1.008.998-.197.53m-21.051 33.018c3.637-2.623 7.998-5.39 6.837-5.455l-1.688.499a56.974 41.834 0 0 1-5.171 4.956ZM395.197 5.42l1.314-.531.285-.306-.46-.434-1.95 1.722 2.17-1.48-.045-.033-1.358 1.062Zm-.242 3.91-5.522 2.8c1.293-.58 3.068-1.48 5.522-2.8m-279.5 173.08-2.498 2.462c4.865-2.993 2.41-1.947 2.498-2.462m146.27-32.824a155.582 114.239 0 0 0-8.875 4.683c4.448-2.108 8.283-3.588 8.874-4.683m-40.106-42.792c-1.534 1.094-2.104 1.641-1.907 1.722 1.578-1.127 2.41-1.802 1.907-1.722m21.371 53.284 1.95-.933c2.389-1.56 4.821-3.105 7.91-4.875-3.286 1.56-6.924 3.459-9.86 5.808m-55.656-82.574-1.03.306c-.044.113.416-.048 1.03-.306M64.442 134.06c1.008-.756 2.739-1.93 4.338-3.057-.832.5-2.147 1.416-4.338 3.058m271.48-28.854c2.498-1.528.329-.306 0 0m14.718-5.129c-.483.387-.811.708-.724.87q.11-.387.723-.87m-129.322 78.306-.22.128c.877-.338.724-.29.22-.128m117.913-75.127 2.28-1.255c.219-.273-.132-.177-2.28 1.255m-6.836 4.078q2.147-1.287 4.185-2.365-.832.386-.679.257zM72.878 169.76l.57-.306c2.104-1.883 1.096-1.127-.57.305m191.52-84.435-.22.225.351-.257h-.131Zm7.516-6.693a35.06 25.744 0 0 1-7.385 6.677l4.69-.74z"></path><path fill="#c9e4ff" d="m174.313 145.661 6.881-3.395c-6.727 5.471-12.556 8.576-5.85 5.616-1.009-2.22 24.389-15.221 23.359-17.426l4.58-2.204c-1.206.708-1.293.933-2.499 1.641 9.029-4.151 4.646-4.907 15.361-11.054 3.791-2.091 6.596-3.41 4.34-1.689l7.647-5.374c2.388-1.416 2.147-.772-.241.644l12.227-7.708-.044.113c1.469-1.352 4.997-4.2 6.75-5.567 3.418-1.69-1.38 1.142-.33.853l6.4-4.602c3.286-1.271-1.907 2.623-6.706 5.454 8.305-2.236 5.194-3.893 20.116-11.375l-6.223 4.167c5.26-1.593 9.905-5.036 17.903-8.914-2.082.756-16.347 7.466-9.379 2.494a56.974 41.834 0 0 0 8.7-5.583c.723.58 4.47-1.963 9.335-5.004l.57.998c5.04-3.476 4.163-3.62 6.88-5.89 5.982-3.54 7.91-3.668 9.883-4.006 9.598-5.663-7.648 3.009 3.374-3.99 8.218-4.505 13.367-8.222 22.242-14.449 5.807-3.09-.416 1.078 1.819.097l4.163-3.62c1.205-.709 1.052-.29.964-.065 3.835-2.767-.547-.998 5.654-5.165.745-1.93 14.704-6.854 21.584-12.743 2.235-.982-.394 1.062.548.997 10.233-7.369 8.875-6.226 16.895-12.614l8.261-4.184c-6.31 2.864.088-2.252 5.741-6.693a159.965 117.457 0 0 0-5.61 2.317l6.07-4.167 1.71 1.657-3.747 2.22c-1.425.531-.614-.321.789-1.576l-1.753 1.222c-4.12 1.69-2.608.161-.307-1.737l3.9-1.336.723.692-.438.177c-1.95 2.011-3.66 3.958-2.63 4.103.548-.499 1.732-1.335 3.068-2.237-.504.531-.788.902-.394.789.35-.097.964-.644 1.928-1.48l-3.637-3.508-.855.628-3.33.337-.242.676-14.616 6.79-13.257 9.783c-4.755 3.475-10.102 7.433-17.508 12.083 3.045-2.88-.373-1.544-1.052-2.43 2.542-.82 5.39-2.654 8.633-4.842 3.244-2.188 6.815-4.779 10.979-6.919-4.317 2.269-3.791 1.368-2.849.644-4.514 2.96-8.897 6.05-13.345 9.058-.35-.804-3.572 1.255-7.45 3.267 4.141-.45-9.357 7.224-14.441 11.166-.833-.177-.066-1.496 6.925-5.664-8.678 3.782-7.933 7.627-16.085 11.617 1.622-1.094 2.564-1.609 2.959-2.236-1.688 1.432-4.93 3.636-7.538 5.23-2.586 1.624-4.493 2.702-3.638 1.785l1.578-1.126a714.364 524.534 0 0 0-9.51 6.613l-5.325 3.813-5.062 3.926a232.278 170.554 0 0 0-8.305 6.838c-2.126 1.883-3.353 3.315-3.397 3.83-.285-.049-.328-2.156 0-2.832l-6.552 8.544-3.243 4.247-3.112 4.329c.33-2.044-8.326.949-1.03-6.163-2.454 1.802-5.5 4.039-9.904 8.35 1.731-1.19 5.631-2.123 3.615-.273-7.187 4.039-4.842 2.88-12.972 8.351 2.52-1.834 1.928 1.577-1.687 4.682.263-.675-2.214-.885-1.096-2.172q-3.55 4.49-6.88 9.075c1.796-2.204-1.25-1.32-3.726.177 1.293-.612-7.516 6.935-9.532 9.252q1.972-1.61 4.054-3.186c-5.018 4.473-6.486 7.224-8.108 9.88a65.739 48.27 0 0 1-7.648 9.975c.658-1.352.11-4.151-4.689.515-.526 1.367-1.578 4.425-3.353 8.222a100.8 74.014 0 0 1-7.406 12.84l-2.038 1.335c-1.687 2.269-3.221 4.586-4.843 6.887.899-2.414 2.87-6.92 5.39-11.57 2.499-4.665 5.15-9.685 7.473-13.032-3.813 3.33-1.71.595-6.508 6.066-2.257 1.657 1.753-3.395 3.221-4.988-3.966 4.119-7.779 8.319-11.68 12.486 1.622-.032-7.056 10.41-5.587 10.378l5.193-7.289 5.456-7.192c.855.016-.022 2.43-2.147 5.921a127.095 93.322 0 0 1-9.116 12.679c-2.432 2.092-.81-2.72-1.38-2.72-.263.693-1.907 2.93-3.507 5.133a54.783 40.225 0 0 1-3.68 4.683l2.388-4.232c-2.257 2.478-3.485 4.779-4.909 7.144q-1.03 1.77-2.432 3.668c-.482.644-1.008 1.255-1.622 1.98-.68.917-1.424 1.882-1.884 3.089q-.263.611-.35 1.4c-.067.514-.264 1.078-.198 1.657-.044 1.174.219 2.43.657 3.556.943 2.252 2.783 3.797 3.375 3.765a6.574 4.827 0 0 1-1.096-1.818q-.307-.853-.175-1.593c.153-.95.68-1.593 1.402-2.012a3.725 2.735 0 0 1 4.273-.048q.022.113.373.531l.372.483.592.53a8.984 6.597 0 0 0 9.949 1.996c1.709-.499 3.265-1.223 4.12-1.545 2.563-.885 1.445.515.218 1.947-1.161 1.4-3.615 3.106-.7 2.253q.021-.161.481-.515l.504-.402.438-.403a34.58 34.58 0 0 1 1.797-1.464c2.959-1.416-.35 1.384 5.479-2.22.065-1.448 12.205-7.064 2.037-2.381 5.566-3.669 6.377-3.476 13.192-7.53-2.783.723 4.098-5.503 9.664-9.172-.11.418 1.512-.064 2.279-.306 12.03-6.95 18.867-10.33 30.02-16.878 1.25-.402 6.903-3.315 5.019-1.593 1.446-1.094 2.585-2.252 6.004-4.296 7.45-3.17-7.538 4.618-1.49 2.526-.11-.756 8.13-5.92 12.687-9.107-2.344.113-11.46 6.5-16.04 9.703-1.183-1.046 6.136-7.177 17.246-14.514 8.962-5.712 4.755-1.673 6.2-2.767 17.575-10.04 12.798-10.555 28.05-18.294 6.464-2.687 1.73 1.19 3.528.933-7.254 4.698-12.03 6.387-17.115 9.412l6.64-3.378a74.504 54.706 0 0 1-9.948 6.178c5.456-2.22 29.495-17.168 43.519-24.489 2.125-1.625 5.982-4.28 3.747-3.411l-4.142 2.59c-4.492 1.754 7.166-5.454 1.512-2.542 5.281-3.733 11-8.093 19.35-12.486l2.344-.112c-.416-.129-5.741 2.622-7.735 4.183 2.958-2.3 13.433-6.194 15.975-9.348l-6.202 2.767c5.303-3.749 11.46-8.72 18.823-12.662-4.053 1.142-1.533 1.045-7.56 3.137 5.588-1.464-18.21 10.636-9.926 7.675-6.311 2.011-9.445 4.827-17.158 7.932.482.13 2.936-.917-3.177 2.462-.198.225-.724.708-1.074.998l-.416.225.372-.16c-.22.192-.241.208.132-.065 1.533-.724 2.826-1.271 3.462-1.4-2.323 2.317-11.833 7.884-14.704 10.072-3.66 1.963 1.162-1.158-1.074-.29l-4.295 3.267c-1.095-.29-10.43 4.586-2.454-.644l-7.538 4.393a116.139 85.277 0 0 0-14.462 8.174c-3.682 1.963-8.262 5.889-5.654 3.62l-11.373 7.273-.263-.08c-11.68 6.757-22.877 14.995-37.252 21.785-3.747 2.446-7.604 4.988-14.31 8.672l-1.796.258c-4.82 3.121-15.602 8.383-17.202 10.153-3.418.933-9.598 4.44-16.04 8.334l-9.576 5.857-4.36 2.639-1.009.595c-.328.193-.7.419-.789.419-.306.08-.547.321-.81.321l.306.789c-.394.177-.81.16-1.205.273-.416-.032-.81.065-1.249-.016a5.697 4.183 0 0 1-2.651-.756c-1.666-.933-2.849-2.35-2.301-4.167l-1.008.032q.022-.354.24-.74c.154-.274.154-.467.505-.901q.833-1.127 1.819-2.366 1.972-2.477 4.404-5.229l4.974-5.744a201.6 148.028 0 0 0 5.216-6.034c-.154.708-1.972 2.736-3.375 4.12 9.97-8.947 16.062-21.207 25.573-29.091 1.73-2.285 3.287-3.782 4.908-5.165l-.46.547.833-.87 3.243-2.718q-1.622 1.19-2.805 2.252c1.49-1.673 3.879-4.15 6.092-6.645l1.884-.563.526-.563c2.674-2.172 1.49-2.108-.394-1.207 1.073-1.287 2.016-2.478 2.673-3.443 3.221-1.19 6.004-6.468 10.168-8.206.504-.982 3.484-4.023 6.398-7.048 2.98-2.976 5.83-5.969 5.807-7.015.285.032 1.14-.579-.263.66a89.843 65.969 0 0 0 8.35-7.434l2.278-.418 5.172-6.323c4.58-2.913 6.574-4.055 3.418-.258 8.437-8.64 7.45-6.597 14.616-13.998l.22.756c2.935-2.381 7.099-6.58 9.444-7.61 2.038-1.046 5.105-3.202 9.072-5.905 3.988-2.671 8.721-5.986 13.783-9.526a1668.302 1668.302 0 0 1 16.26-10.667c5.631-3.428 11.175-6.71 16.193-9.477-5.412.804 9.795-4.747 9.335-6.308 1.512-.321 4.448-1.737 1.622.435q3.593-2.317 6.573-4.007l5.654-2.992a56.974 41.834 0 0 0 9.532-6.018c1.534-.29-1.665 1.738-.394 1.368a17.53 12.872 0 0 1 4.229-2.446c1.293-.322-1.25 1.078-2.695 2.14 10.496-5.68 10.54-7.321 10.299-8.785a54.783 40.225 0 0 0 6.464-2.896l-3.703-3.572c-1.885 1.19-3.331 2.38-4.93 3.942-2.148.772-5.5 2.252.635-1.706-3.594 2.108-22.11 12.743-21.584 13.757-1.337.483-4.997 2.96-5.83 3.62-7.976 4.811-8.765 5.165-16.456 10.008l2.3-1.19c-1.993 2.831-6.222 4.167-12.38 8.125l.066-.21c-15.164 8.126-5.83 4.136-20.927 12.036l1.446.113c.132 2.092-13.433 6.95-21.124 12.486l3.353-1.48c-4.01 3.185-14.55 5.969-19.24 8.575-1.117.5 1.359-1.126 2.63-2.06-12.688 6.485-.658 1.722-9.27 7.29-2.103.579.877-2.35-5.127 1.206-3.331 1.465-15.668 11.89-24.674 16.042 2.147-.772 4.295-1.528.46 1.223-6.136 3.958-18.363 9.171-22.877 13.66-.899.403-1.293.5-1.425.435-4.492 3.202-15.098 9.976-17.355 12.309-6.749.66-28.706 19.26-30.744 17.296l-14.638 9.14.176-.435c-9.576 5.648-12.403 8.142-15.208 10.62-2.323 1.206-.942.048-.876-.161-14.222 8.06-15.493 8.978-25.99 16.99l-1.906.13c-2.717 2.268-21.014 11.23-33.724 20.224.044-.144.198-.434 1.184-1.19-14.397 10.024-38.348 20.595-41.372 26.226l-9.423 6.694c13.192-7.772-.832 2.156 4.93-.74-2.475 1.593-5.96 3.54-8.085 4.376-1.052.386-1.71.531-1.753.37 0-.08.548-.482 2.016-1.287l1.117-.483c.263-.675-.7-.305-2.147.306-1.271.58-3.2 1.207-5.237 1.143a7.889 5.792 0 0 1-5.172-1.674c-1.161-.853-1.49-1.625-1.14-1.69a6.574 4.827 0 0 1-1.139-2.895c-.066-.5.197-.966.329-1.449l.46-.691.22-.354.35-.322.657-.66 1.03-.82 2.104-1.658 4.207-3.298c5.588-4.393 11.307-8.624 16.939-12.872a2658.047 1951.717 0 0 1 33.812-24.49l-3.682.998 7.801-5.535c2.323-1.239 3.594-1.303-1.972 2.64 3.506-1.642 8.81-7.016 8.7-7.322 11.372-7.353-2.98 3.99.394 1.657l4.47-3.266-1.161.628c3.221-2.945 3.068-3.556 9.926-8.174 4.514-2.784 2.871-.982 4.602-2.108.066.065.68-.29 2.63-1.754l10.167-6.677-4.886 2.011c4.054-3.33 9.532-6.323 3.922-3.99 2.06-.853 5.544-2.8 9.62-5.278 4.076-2.493 8.787-5.518 13.455-8.463 9.247-5.953 18.253-11.6 20.62-12.775a197.217 144.81 0 0 1 20.554-13.13c-2.17 1.03-4.273.933 2.805-3.09-.745 3.155 13.63-6.757 20.642-8.784-5.982 2.075 19.963-11.553 10.715-8.19 6.092-3.17 1.03.434 5.96-1.657a216.939 159.291 0 0 1 10.957-6.34 15.34 11.263 0 0 0 5.654-5.905 14.9 10.941 0 0 0-.833-7.466 15.34 11.263 0 0 0-7.231-5.599 14.682 10.78 0 0 0-11.022-.547c-1.973.435-2.871.837-4.208 1.255l-3.747 1.255q-3.769 1.255-7.472 2.623c-.132.37 3.44-.45-.57 1.48l-11.329 2.574c-3.79 1.642-2.52 2.832-10.211 4.73 1.161-.176 2.87-.45.35.645-19.524 6.983-38.172 15.945-56.163 25.55-18.012 9.606-35.324 19.936-52.7 30.024 4.886-2.59 2.015-.563-1.293 1.738 2.3-1.384.591.547 1.38.531-4.865 2.784-9.554 5.712-14.287 8.64-1.403 2.462-13.74 10.475-13.937 12.277l3.77-3.282c-4.142 4.94 10.123-3.91 10.846-2.205 2.257-2.783 6.903-5.293 11.811-8.27 2.498-1.464 5.15-2.977 7.67-4.682a67.93 49.879 0 0 0 7.187-5.632c2.608-1.27-1.534 1.658.022 1.127 2.104-2.205 5.128-4.49 11.548-7.997l-.548.547 6.005-3.733 5.522-3.17a208.174 152.855 0 0 1 10.233-5.55c3.419-1.77 6.903-3.589 10.935-5.503a603.467 603.467 0 0 1 13.74-6.581l-2.126.129c4.58-2.124 5.675-2.43 7.954-3.267 4.317-3.507-12.71 6.147-8.94 2.784 1.796-.418 4.645-1.61 8.063-3.154 3.44-1.496 7.429-3.33 11.351-5.149 3.989-1.737 7.911-3.443 11.176-4.73 3.287-1.255 5.938-2.06 7.297-2.124 7.253-2.993-2.717.113 4.536-2.88l2.257-.354 1.468-1.271c4.887-1.802 7.692-2.22 8.13-1.93-1.205.417-3.243 1.399-4.47 1.914 6.53-2.011 17.618-6.806 19.919-7.434q-3.682 1.143-7.341 2.333c4.974-1.995 10.408-3.877 15.952-5.792l2.082-.724c.395-.145.57-.161.811-.225l.68-.177c.46-.13.876-.08 1.314-.177l1.25.048a6.574 4.827 0 0 1 4.163 2.269c.92 1.238 1.161 2.654.657 3.797l-.526.836c-.307.242-.46.531-.833.773-.416.241-.591.434-1.161.772l-1.819 1.03c-4.82 2.751-9.466 5.454-13.695 8.11l1.643-.467c-12.885 8.093-11.154 5.695-25.507 14.4l.46-.37a120.522 88.495 0 0 1-10.342 6.71c3.308-2.494-7.582 3.427-3.178.24-13.652 9.06-6.552 4.667-14.77 11.344l-2.673.853c-2.695 2.365-2.695 2.752-9.641 7.273 5.346-4.007-5.325 2.124.591-2.446-16.018 8.303-20.707 14.9-29.1 17.844-5.194 5.6 13.433-7.546 10.014-4.843 3.616-1.641-4.404 4.537-9.116 7.385-4.667 3.009-9.795 3.62-21.277 11.456 1.14-.772 1.117-.917 2.257-1.69-4.668 2.64-7.867 6.18-13.74 9.3-1.972 2.768-6.793 4.715-6.442 6.212l10.102-7.498c-2.827 2.156-5.215 4.52-8.24 7.08a109.565 80.45 0 0 1-11.723 8.591 65.739 48.27 0 0 1 4.799-4.57c-3.155 1.755-5.15 4.072-8.415 5.89-.416-1.513 12.184-9.188 17.618-14.304-3.55 1.753-11.044 9.058-9.181 5.84-2.827 4.506-11.285 7.756-17.465 14.24l-.24-.901c-1.074.965-3.178 3.025-5.37 4.634l2.98-3.62c-5.258 5.052-12.336 8.173-17.617 12.84 11.986-9.14 3.593-1.4 9.225-4.876-13.783 11.939-10.496 5.052-26.47 18.085 2.059-1.834 8.764-6.178 5.63-3.25-3.286 2.301-7.603 5.374-9.904 6.597-10.54 8.64 2.432-.772-1.643 3.17-3.704 1.705-7.889 5.728-5.544 12.309l-1.008.241a15.34 11.263 0 0 0 3.528 4.891 13.148 9.654 0 0 0 3.44 2.028c1.885.772 2.783.692 3.462.708.68 0 1.315-.065 3.046.064q.636.048 1.534.016c.592-.032 1.293.048 2.082-.096a15.34 11.263 0 0 0 5.807-1.513 13.805 10.137 0 0 1-8.59 2.768c4.185.16 8.217-1.207 10.913-2.993-.307.547-.79 1.142-1.25 1.721l1.841-1.094 1.074-.788 1.972-1.384q1.84-1.255 3.506-2.285c2.28-1.4 4.646-2.719 8.196-4.73-2.082.563-.33-1.641 5.763-5.39 4.558-2.188-1.688 1.995 6.859-3.395-1.534 1.56-3.134 3.347-7.517 5.1-.175.435-1.512 1.561-1.687 1.995 4.952-2.333 11.373-6.806 14.506-8.72-1.227.724-2.717 1.56-3.55 1.93l11.614-8.495c2.236-.981.877.16-.482 1.287 2.477-1.625 3.923-2.976 7.582-5.31-.416 1.079.373 1.433-4.645 4.908l11.329-7.852c1.03-.273 6.793-3.17 5.434-2.043 6.947-3.765 15.186-10.893 24.39-15.881.35-.37 1.16-1.03 2.958-2.237 8.37-4.94 16.369-8.817 25.397-15.478l6.53-2.526c7.428-4.892-8.765 3.507 3.637-4.634 8.722-5.809 4.208-1.32 7.648-3.025 3.988-3.186 10.803-8.866 19.897-13.226-2.564 1.85-4.865 3.04-7.363 4.666Zm94.073-58.23c-1.687 1.24-4.909 3.862-6.64 4.329 1.315-1.963 3.287-2.623 6.64-4.328M382.114 9.91c1.25-.965 3.594-2.043 6.333-3.121a56.974 41.834 0 0 1-6.333 3.121m-73.583 112.228-.176.145c-4.404 2.204-2.826 1.432.176-.145m8.918-4.811c.767-.595.614-.644.176-.515a28.487 20.917 0 0 1-4.602 2.912 15.34 11.263 0 0 0 4.448-2.397Zm-214.397 38.616-1.753.933c3.331-2.59 2.52-1.77 1.753-.933"></path><path fill="#c9e4ff" d="M395.03 8.832c-.635.21-.898.193-1.161.161-.614.547-.482.66 1.161-.16M115.915 181.944l-.285.177-.175.29.46-.45Zm73.641 19.051q-1.402.708-2.279 1.11-.416.193-.964.386l-.877.306q-.044.193 1.118-.257c.81-.322 1.578-.757 3.002-1.545m172.42-111.568-5.346 3.411c2.63-1.593 3.725-2.027 5.193-2.72-.285-.064-1.556.339.153-.675Zm51.279-8.287c.263.74.307 1.592.57 2.317l.438-.258a21.913 16.09 0 0 0-1.008-3.508c-.417-.498-.285-.225 0 1.432Zm-43.96 7.29c.986.257 4.273-1.964 8.02-4.329l-.679.402c.373-1.383-3.506 1.271-7.34 3.926m8.896-4.878q1.753-1.094 3.55-2.108c.131-.547-1.512.789-3.55 2.108m-50.186 26.996c1.972-.95.439-1.335 1.71-1.738 1.336-1.85-11.373 7.981-1.71 1.738m46.242-22.279-2.06.194-1.622 1.77zm-31.03 17.506 6.378-3.459c-.22-.048.504-.58 1.424-1.19-3.835 2.22-8.13 4.553-7.78 4.65Zm7.78-4.65c1.994-1.158 3.879-2.284 4.865-3.025a133.67 98.149 0 0 0-4.865 3.025m15.01-7.69-1.972.933-4.404 2.526zm-89.36 51.294-6.552 4.151c-.46.628 1.534-.321 3.944-1.898 1.447-1.094 3.857-2.655 2.608-2.253m22.285-10.281c-1.972.949-2.235.869-3.506 1.27l.635.902zm-19.466 11.755c-.438.61-9.116 6.371-.614 1.303.46-.612 7.013-4.763.614-1.303m-104.803 55.742c.723.177 1.512.177 2.28.274q-.11-.837-.132-1.674c-.57.467-1.337 1.03-2.148 1.384Zm39.596-73.151c-6.53 5.89-.415 2.011-6.354 7.289-.482.837.723-.241 1.907-1.336 1.205-1.078 2.432-2.123 1.884-1.303 3.243-3.91 5.434-5.712 2.564-4.65m-2.564 4.672q-.81.933-1.578 2.028c.899-1.143 1.359-1.674 1.578-2.028M46.43 146.112q-2.498 1.609-4.908 3.315 1.709-.998 3.484-1.931zm-7.472 7.691-2.104.145-1.73 2.8c.963-.837 2.826-2.478 3.834-2.945m245.316-73.354.175-.435c-1.03.274-2.213.982-4.623 2.398l4.47-1.963Zm-69.267 41.383 1.183-.708-3.024.628zm-56.53 36.154c2.389-1.416 4.953-3.266 7.363-4.682-4.974 3.266-9.028 4.151-7.363 4.682"></path><g transform="translate(287.3 109.41)"><filter id="a" width="140%" height="140%" x="-20%" y="-20%"><feGaussianBlur in="SourceAlpha"></feGaussianBlur><feOffset result="oBlur"></feOffset><feFlood flood-color="#F75CFF" flood-opacity="1"></feFlood><feComposite in2="oBlur" operator="in"></feComposite><feMerge><feMergeNode></feMergeNode><feMergeNode in="SourceGraphic"></feMergeNode></feMerge></filter><g filter="url(#a)"><path fill="#03407c" d="M-85.23 42.26V38.3h9.34v-69.77h-9.44v-3.96h26.5l22.91 56.51 22.75-56.51h25.64v3.96h-9.9V38.3h10.82v3.96h-33.77V38.3h9.24l.05-67.59-28.24 70.48h-2.03l-29.91-70.84V38.3h9.19v3.96z"></path><rect width="98.72" height="77.69" x="-49.36" y="-38.84" fill="none" rx="0" ry="0" transform="translate(-35.47 3.92)"></rect><path fill="#03407c" d="M18.46 42.26V38.3h8.23v-77.59h-8.73v-3.97h21.93v39.87q7.42-7.16 17.47-7.16 6.76 0 12.04 3.45 6.7 4.47 6.7 14.22V38.3h8.23v3.96H54.67V38.3h8.23V6.1q0-5.94-1.25-8.07-1.24-2.13-2.79-2.95-1.55-.81-4.72-.81-3.18 0-7.14 1.93-3.96 1.93-7.11 5.79V38.3h8.23v3.96z"></path><rect width="66.37" height="85.52" x="-33.19" y="-42.76" fill="none" rx="0" ry="0" transform="translate(51.65)"></rect></g></g><rect width="174.32" height="118.23" x="-87.16" y="-59.12" fill="none" rx="0" ry="0" transform="translate(286 119.5)"></rect></svg></svg>