<svg xmlns="http://www.w3.org/2000/svg" version="1.1" xmlns:xlink="http://www.w3.org/1999/xlink" width="2000" height="255" viewBox="0 0 2000 255"><svg xml:space="preserve" width="2000" height="255" data-version="2" data-id="lg_taTaq74lFkKgN0S5ZN" viewBox="0 0 255 255" x="0" y="0"><rect width="100%" height="100%" fill="transparent"></rect><circle r="124.31" fill="none" stroke="#9bb0f3" transform="translate(127.5 127.5)"></circle><path fill="#9bb0f3" d="M67.23 176.758q-2.73-.91-2.43-3.95l.61-6.08.91-10.64q.91-15.5-3.65-15.5-3.34 0-11.25 7.9-2.43 2.74-5.32 6.84-2.88 4.1-6.23 9.88-6.08 10.34-6.69 10.64-.6.3-1.21.46-.61.15-1.22.15-2.73 0-2.73-3.65 0-1.52.3-1.82l9.12-20.98q7.9-18.54 7.9-22.5.92-1.21 6.08-3.64 1.22-.61 2.13-.92.91-.3 1.83-.3 2.12 0 2.12 2.74l-6.08 18.54q3.04-3.04 8.52-7.6 3.04-2.13 6.68-2.13 8.82 0 10.04 11.25l-.92 19.46q5.78-8.82 23.41-32.53 3.35-4.56 7.6-4.56 2.13 0 2.13 2.43l-.3 2.43q-4.87 15.51-4.87 25.23 0 12.16 8.51 12.16 6.39 0 15.2-6.99 1.52-1.21 4.72-4.25 3.19-3.04 7.75-7.91 1.21-1.21 2.13-1.21 1.21 0 1.21 1.21.31.61-.61 2.13-20.36 22.8-35.26 22.8-15.2 0-13.98-29.18-1.22 1.21-3.35 3.64-2.13 2.44-5.17 6.08l-11.24 17.33q-3.96 4.26-6.39 3.04"></path><rect width="115.4" height="54.81" x="-57.7" y="-27.41" fill="none" rx="0" ry="0" transform="translate(86.22 150.55)"></rect><path fill="#9bb0f3" d="M140.5 175.238q-4.26 0-4.26-6.99 0-3.04.91-6.08 2.43-8.51 7.3-20.37 4.86-11.85 11.55-27.36 8.51-19.45 15.66-33.29 7.14-13.83 12.92-22.34 9.42-13.98 20.67-13.98 8.21 0 8.21 9.72 0 4.26-1.83 9.43-8.51 27.05-50.77 63.23-4.25 7.9-7.9 17.02-3.65 9.12-6.08 19.46l3.65-3.65q2.43-2.43 5.62-5.77 3.19-3.35 8.06-7.91 12.16-10.33 19.45-10.33 4.87 0 5.78 7.9l1.52 14.9q1.52 7.9 6.08 7.9 5.47 0 13.38-5.78 3.04-2.43 5.77-4.71 2.74-2.28 4.87-4.71 1.52-1.82 3.04-1.82.91 0 .91 1.21 0 .91-.91 2.43-20.37 20.98-33.14 20.98-5.78 0-8.21-8.82l-3.65-13.68q-2.12-4.86-5.77-4.86-3.04 0-7.91 3.34-5.77 4.56-12.76 13.68-1.52 2.13-3.2 4.41-1.67 2.28-3.19 4.41-3.34 2.43-5.77 2.43m22.8-54.11q6.08-6.08 12-12.77 5.93-6.69 11.71-14.29 13.37-18.24 18.24-30.7 2.43-6.38 2.43-9.12 0-4.86-3.34-4.86-5.17 0-11.86 11.24-8.21 14.29-15.5 29.49-7.3 15.2-13.68 31.01"></path><rect width="88.77" height="130.41" x="-44.38" y="-65.2" fill="none" rx="0" ry="0" transform="translate(181.13 110.53)"></rect></svg></svg>