<svg xmlns="http://www.w3.org/2000/svg" xml:space="preserve" width="192" height="192" data-version="2">
    <path fill="#9bb0f3" d="M131.11 165.69q-5.7 0-5.7-8.62 0-1.54.16-3.08.15-1.54.46-3.23 1.85-9.86 10.16-26.03 2.62-5.08 6.4-12.01 3.77-6.93 9-15.56 9.4-15.86 11.25-19.71 1.07-2.31 1.07-4 0-1.23-.92-1.23-3.08 0-13.4 10.01-10.62 10.31-20.33 23.56-5.69 7.54-9.62 14.47-3.93 6.93-6.24 13.09-2.31 5.86-4.93 5.86-1.54 0-1.54-2.62 0-.31.08-.77t.23-1.08q2.62-13.24 3.62-22.95 1-9.7 1-15.86 0-20.48-5.23-20.48-5.39 0-16.33 21.71-3.85 7.7-7.24 15.79-3.38 8.08-6.31 16.4-1.54 4.31-4.16 9.24 4.31.15 9.24-2.16 5.24-2.31 6.32-6.16.3-.3.61-.3t.54.23q.23.23-.08.54-.92 2.77-3.77 4.77-2.85 2-6.47 3.08-3.62 1.08-7 1.08-4.32 7.54-8.94 12.47-5.08 5.7-9.24 6.47-.61.15-1.15.15h-1.16q-5.85 0-5.85-5.69 0-2.78 1.39-2.78.92 0 .61 1.39l-.15 1.08q0 2.46 2.77 2.46.93 0 1.85-.46 7.08-2.62 13.71-16.32-1.24-.31-2.39-1.01-1.16-.69-2.39-1.46-1.54 2.93-3.39 6.16-1.84 3.24-4.15 6.78 0 .15-.31.15-.46 0-.54-.31-.08-.3.08-.46 1.69-2.62 3.38-5.93 1.7-3.31 3.55-7.31-6.47-4.93-11.25-14.63-4.31-9.24-4.92-17.56-.16-1.54-.23-2.92-.08-1.39-.08-2.62 0-13.86 5.7-21.87 5.39-7.39 12.16-7.39 5.39 0 8.78 4.77 3.85 4.93 3.85 14.17-.15 21.71-12.01 47.59 2 1.69 4.77 2.77 3.08-6.78 6.01-15.56 6.16-18.63 6.16-32.34 0-16.47-8.93-24.94-4.32-4.16-9.24-4.16-7.55 0-13.86 8.78-6.01 8.47-6.01 18.01 0 3.55 1.23 6.78.46 1.08.46 2.16 0 1.23-.77 1.23-1.07 0-1.84-1.85-2.01-4.62-2.01-10.16 0-7.09 3.08-13.25t8.24-10.01q5.16-3.85 11.01-3.85 6.01 0 11.4 4.31 12.17 9.24 12.17 31.42 0 3.23-.31 6.7-.31 3.46-.93 7.01 2.47-5.86 4.62-10.25 2.16-4.38 3.85-7.31 11.25-18.63 18.64-18.63 4 0 6.16 5.85 2 5.08 2 14.17 0 2-.08 3.92-.07 1.93-.23 4.08-.31 3.08-1.08 7.63-.77 4.54-2 10.39-1.23 6.16-1.92 9.55-.7 3.39-.85 4.16 3.54-7.55 8.47-15.63 4.93-8.09 11.24-17.02 16.33-22.48 28.65-28.34 6.31-2.77 9.24-2.77 3.69 0 3.69 3.54 0 7.4-13.86 25.72-5.23 6.93-9.7 14.17-4.47 7.24-8.16 14.94-4.62 9.39-6.85 17.09-2.24 7.7-2.24 13.86 0 5.85 3.08 5.85t6.93-4.15q.77-.77 1.39-.77.61 0 .61.46 0 .77-1.38 2.15-5.85 5.39-11.4 5.39m-70.68-32.03Q70.9 110.1 71.21 87.62q0-8.94-3.24-13.71-3.08-4.47-7.7-4.47-5.7 0-9.85 6.63-4.78 7.54-4.78 20.02 0 1.54.08 3t.23 3q.77 8.47 4.31 16.79 4.01 9.39 10.17 14.78" paint-order="stroke"/>
    <rect width="135.06" height="107.49" x="-67.53" y="-53.745" fill="none" rx="0" ry="0" transform="translate(105.66 112.445)"/>
</svg>
