<svg xmlns="http://www.w3.org/2000/svg" xml:space="preserve" width="14" height="14" data-version="2">
    <path fill="#c5e2ff" d="M1.32 8.61v-.3h.71V2.94h-.72v-.3h2.04l1.76 4.34 1.75-4.34h1.97v.3h-.76v5.37h.83v.3H6.3v-.3h.72v-5.2L4.85 8.53h-.16l-2.3-5.45v5.23h.71v.3z" paint-order="stroke"/>
    <rect width="7.59" height="6.97" x="-3.795" y="-2.985" fill="none" rx="0" ry="0" transform="translate(5.605 6.125)"/>
    <path fill="#c5e2ff" d="M8.48 8.61v-.3h.61l.01-5.37h-.62v-.3h2.33v.3h-.66v2.52h2.91V2.94h-.66v-.3h2.32v.3h-.61v5.37h.61v.3H12.4v-.3h.66V5.77h-2.91v2.54h.66v.3z" paint-order="stroke"/>
    <rect width="6.24" height="6.97" x="-3.12" y="-2.985" fill="none" rx="0" ry="0" transform="translate(12.1 6.125)"/>
</svg>
