<svg xmlns="http://www.w3.org/2000/svg" xml:space="preserve" width="192" height="192" data-version="2">
    <path fill="#205bb9" d="M41.45 145.52q-2.93 0-4.01-1.69-1.08-1.7-1.08-3.7 0-9.55 1.93-21.87 1.92-12.32 4.7-24.48 2.46-10.32 5.46-19.25 3.01-8.94 5.32-14.63 3.38-8.01 7.77-12.25 4.39-4.23 10.24-4.23 4.32 0 7.7 2.85 3.39 2.85 4.01 10.24.92 8.93 2.15 18.02 1.24 9.08 2.78 16.55 1.54 7.47 3.23 11.47 1.39 3.55 4 3.55 2.93 0 5.09-3.7 2-3.39 4.31-9.24 2.31-5.85 4.54-12.4 2.23-6.54 3.93-11.93 2-5.85 4.54-11.78t6.55-9.86q4-3.93 10.01-3.93 5.54 0 7.93 3.78 2.38 3.77 2.38 11.93 0 6.32-.46 13.25-.15 4-.38 8.23-.23 4.24-.23 8.71 0 6.93.69 14.63.69 7.7 2.77 14.47 2.08 6.78 6.24 11.4 1.23 1.08 2.23 2.46 1 1.39 1 3.08 0 3.85-4.08 7.01-4.08 3.16-9.32 3.16-4.77 0-7.08-3.08-2.31-3.08-3.7-8.32-1.54-6.47-2.15-13.86-.62-7.39-.62-14.32 0-11.09.85-20.41.85-9.31.85-13.78 0-2.46-.47-3.62-.46-1.15-2.31-1.15-2.15 0-3.62 1.92-1.46 1.93-2.38 5.31-2 6.47-4.47 13.86-2.46 7.4-5.16 14.48-2.69 7.08-5.77 12.63-3.54 6.47-7.63 8.7-4.08 2.23-8.23 2.23-6.47 0-9.78-4.08-3.31-4.08-4.85-9.01-2.01-6.62-3.7-17.32-1.69-10.71-2.46-24.1-.31-5.7-3.7-5.7-3.7 0-5.85 5.54-1.85 5.55-3.54 13.01-1.7 7.47-2.7 15.56-1 8.08-1 15.94 0 6.62.54 11.55.54 4.93.54 9.24 0 3.08-2.39 5.08t-5.62 2.93q-3.23.92-5.54.92" paint-order="stroke"/>
    <rect width="120.43" height="102.26" x="-60.215" y="-51.13" fill="none" rx="0" ry="0" transform="translate(97.075 94.89)"/>
</svg>
